# Blender v2.93.0 OBJ File: ''
# www.blender.org
mtllib roomNew.mtl
o Cube.001
v -1.000000 -1.000000 1.000000
v -1.000000 1.000000 1.000000
v -1.000000 1.000000 0.996934
v -0.996835 -1.000000 1.000000
v 1.000000 -1.000000 -1.511054
v -1.000000 -1.000000 -1.511054
v -1.000000 -0.990795 -1.511054
v 1.000000 -1.000000 -1.507415
v 1.000000 1.000000 0.996934
v 1.000000 -1.000000 0.996934
v -1.000000 -1.000000 0.996934
v 1.000000 1.000000 1.000000
v 1.000000 -1.000000 1.000000
v -0.996835 1.000000 1.000000
v -0.996835 -1.000000 -1.511054
v -1.000000 1.000000 -1.511054
v -0.996835 1.000000 -1.511054
v -1.000000 1.000000 -1.507415
v -1.000000 -1.000000 -1.507415
v 1.000000 1.000000 -1.511054
v 1.000000 1.000000 -1.507415
v 1.000000 -0.990795 -1.511054
v -1.000000 -0.990795 1.000000
v 1.000000 -0.990795 1.000000
vt 0.998093 0.500000
vt 0.998093 0.999921
vt 0.998093 0.999921
vt 0.998093 0.500000
vt 0.370429 0.000079
vt 0.370429 0.500000
vt 0.370429 0.500000
vt 0.370429 0.000079
vt 0.499900 0.500100
vt 0.499900 0.999900
vt 0.000100 0.999900
vt 0.000000 0.000000
vt 0.000000 0.000000
vt 0.000000 0.000000
vt 0.000000 0.000000
vt 0.000000 0.000000
vt 0.998093 0.000079
vt 0.998093 0.500000
vt 0.500112 0.999888
vt 0.500112 0.500112
vt 1.002098 0.500112
vt 0.000000 0.000000
vt 0.000000 0.000000
vt 0.500000 0.000252
vt 0.499999 0.614461
vt 0.489283 0.614288
vt 0.362430 0.637570
vt 0.362430 0.987430
vt 0.362430 0.987430
vt 0.499900 0.499900
vt 0.000100 0.499900
vt 0.000100 0.000100
vt 0.000000 0.000000
vt 0.000000 0.000000
vt 0.000000 0.000000
vt 0.000000 0.000000
vt 0.362430 0.637570
vt 1.002098 0.000112
vt 1.002098 0.499888
vt 0.500112 0.499888
vt 0.000000 0.000000
vt 0.510717 0.000400
vt 0.998093 0.000079
vt 0.998093 0.999921
vt 0.370429 0.000079
vt 0.370429 0.500000
vt 0.000100 0.500100
vt 0.000000 0.000000
vt 0.998093 0.000079
vt 1.002098 0.999888
vt 0.000000 0.000000
vt 0.489283 0.000078
vt 0.362430 0.637570
vt 0.499900 0.000100
vt 0.000000 0.000000
vt 0.362430 0.987430
vt 0.500112 0.000112
vt 0.000000 0.000000
vt 0.510717 0.614609
vt 0.998093 0.500000
vn -1.0000 0.0000 0.0000
vn 0.0000 -0.0000 1.0000
vn 0.0000 0.0000 -1.0000
vn 0.0000 -1.0000 0.0000
vn 0.0000 1.0000 0.0000
vn 1.0000 0.0000 0.0000
usemtl Material.001
s 1
f 1/1/1 2/2/1 3/3/1
f 2/2/2 1/1/2 4/4/2
f 5/5/3 6/6/3 7/7/3
f 6/6/4 5/5/4 8/8/4
f 9/9/3 10/10/3 11/11/3
f 2/12/5 12/13/5 9/14/5
f 12/13/6 13/15/6 10/16/6
f 13/17/4 1/1/4 11/18/4
f 14/19/6 4/20/6 15/21/6
f 16/22/5 2/12/5 14/23/5
f 1/24/4 6/25/4 15/26/4
f 6/27/3 16/28/3 17/29/3
f 18/30/2 19/31/2 8/32/2
f 5/33/6 20/34/6 21/35/6
f 20/34/5 16/22/5 18/36/5
f 16/28/1 6/27/1 19/37/1
f 22/38/5 7/39/5 23/40/5
f 13/15/6 5/33/6 22/41/6
f 6/25/1 1/24/1 23/42/1
f 1/1/2 13/17/2 24/43/2
f 1/1/1 3/3/1 11/18/1
f 2/2/2 4/4/2 14/44/2
f 5/5/3 7/7/3 22/45/3
f 6/6/4 8/8/4 19/46/4
f 9/9/3 11/11/3 3/47/3
f 2/12/5 9/14/5 3/48/5
f 12/13/6 10/16/6 9/14/6
f 13/17/4 11/18/4 10/49/4
f 14/19/6 15/21/6 17/50/6
f 16/22/5 14/23/5 17/51/5
f 1/24/4 15/26/4 4/52/4
f 6/27/3 17/29/3 15/53/3
f 18/30/2 8/32/2 21/54/2
f 5/33/6 21/35/6 8/55/6
f 20/34/5 18/36/5 21/35/5
f 16/28/1 19/37/1 18/56/1
f 22/38/5 23/40/5 24/57/5
f 13/15/6 22/41/6 24/58/6
f 6/25/1 23/42/1 7/59/1
f 1/1/2 24/43/2 23/60/2