# Blender v2.92.0 OBJ File: ''
# www.blender.org
mtllib room.mtl
o Cube
v 6.268229 0.203850 -5.108430
v 6.677650 -0.203850 -5.517852
v 6.268229 0.203850 5.108430
v 6.677650 -0.203850 5.517852
v -6.268229 0.203850 -5.108430
v -6.677650 -0.203850 -5.517852
v -6.268229 0.203850 5.108430
v -6.677650 -0.203850 5.517852
v 6.677650 0.203850 5.517852
v -6.677650 0.203850 5.517852
v 6.677650 0.203850 -5.517852
v -6.677650 0.203850 -5.517852
v 6.677650 5.938118 -5.517852
v 6.677650 5.938118 5.517852
v -6.677650 5.938118 5.517852
v -6.677650 5.938118 -5.517852
v 6.268229 5.938118 -5.108430
v 6.268229 5.938118 5.108430
v -6.268229 5.938118 5.108430
v -6.268229 5.938118 -5.108430
vt 0.695225 0.747360
vt 0.523525 0.916702
vt 0.523525 0.747360
vt 0.295968 0.834250
vt 0.169090 0.961128
vt 0.169090 0.834250
vt 0.257256 0.183310
vt 0.164619 0.275947
vt 0.164619 0.183310
vt 0.708431 0.747314
vt 0.544569 0.911176
vt 0.544569 0.747314
vt 0.257256 0.368584
vt 0.164619 0.461221
vt 0.164619 0.368584
vt 0.257256 0.275947
vt 0.740623 0.824313
vt 0.498287 0.833588
vt 0.505951 0.824313
vt 0.625000 0.500000
vt 0.625000 0.750000
vt 0.625000 0.750000
vt 0.625000 0.750000
vt 0.625000 0.500000
vt 0.625000 0.500000
vt 0.631400 0.958984
vt 0.631400 0.705035
vt 0.631400 0.705035
vt 0.634205 0.740404
vt 0.624957 0.500363
vt 0.634205 0.509611
vt 0.615201 0.509923
vt 0.624435 0.749585
vt 0.615202 0.740351
vt 0.608703 0.529565
vt 0.611178 0.607820
vt 0.608703 0.605345
vt 0.566406 0.408203
vt 0.574070 0.398928
vt 0.574070 0.398928
vt 0.625095 0.695618
vt 0.625095 0.947656
vt 0.625095 0.947656
vt 0.578125 0.367188
vt 0.578125 0.617188
vt 0.578125 0.617188
vt 0.594815 0.402029
vt 0.602479 0.411304
vt 0.602479 0.411304
vt 0.508159 0.779843
vt 0.742831 0.779843
vt 0.742831 0.779843
vt 0.695225 0.916702
vt 0.295968 0.961128
vt 0.708431 0.911176
vt 0.257256 0.461221
vt 0.748287 0.833588
vt 0.625000 0.500000
vt 0.625000 0.750000
vt 0.631400 0.958984
vt 0.624957 0.749652
vt 0.624435 0.500689
vt 0.611178 0.527090
vt 0.566406 0.408203
vt 0.625095 0.695618
vt 0.578125 0.367188
vt 0.594815 0.402029
vt 0.508159 0.779843
vn 0.0000 1.0000 0.0000
vn 0.0000 0.0000 1.0000
vn -1.0000 0.0000 0.0000
vn 0.0000 -1.0000 0.0000
vn 1.0000 0.0000 0.0000
vn 0.0000 0.0000 -1.0000
vn -0.7071 0.0000 0.7071
vn 0.7071 0.0000 0.7071
usemtl Material
s off
f 5/1/1 3/2/1 1/3/1
f 9/4/2 8/5/2 4/6/2
f 10/7/3 6/8/3 8/9/3
f 2/10/4 8/11/4 6/12/4
f 11/13/5 4/14/5 2/15/5
f 12/16/6 2/15/6 6/8/6
f 7/17/1 9/18/1 3/19/1
f 11/20/5 14/21/5 9/22/5
f 10/23/3 16/24/3 12/25/3
f 3/26/3 17/27/3 1/28/3
f 18/29/1 13/30/1 17/31/1
f 20/32/1 15/33/1 19/34/1
f 17/35/1 16/36/1 20/37/1
f 9/38/7 18/39/7 3/40/7
f 5/41/5 19/42/5 7/43/5
f 12/44/6 13/45/6 11/46/6
f 7/47/8 15/48/8 10/49/8
f 1/50/2 20/51/2 5/52/2
f 5/1/1 7/53/1 3/2/1
f 9/4/2 10/54/2 8/5/2
f 10/7/3 12/16/3 6/8/3
f 2/10/4 4/55/4 8/11/4
f 11/13/5 9/56/5 4/14/5
f 12/16/6 11/13/6 2/15/6
f 7/17/1 10/57/1 9/18/1
f 11/20/5 13/58/5 14/21/5
f 10/23/3 15/59/3 16/24/3
f 3/26/3 18/60/3 17/27/3
f 18/29/1 14/61/1 13/30/1
f 20/32/1 16/62/1 15/33/1
f 17/35/1 13/63/1 16/36/1
f 9/38/7 14/64/7 18/39/7
f 5/41/5 20/65/5 19/42/5
f 12/44/6 16/66/6 13/45/6
f 7/47/8 19/67/8 15/48/8
f 1/50/2 17/68/2 20/51/2
