# Blender v2.92.0 OBJ File: ''
# www.blender.org
mtllib pedestal_viking.mtl
o mesh_all1.002_Mesh.002
v 0.176397 -0.039890 0.015527
v 0.121971 -0.043459 -0.100966
v 0.012042 -0.050718 -0.156065
v -0.101956 -0.058271 -0.123990
v -0.166679 -0.062583 -0.019747
v -0.151845 -0.061637 0.107885
v -0.064393 -0.055876 0.199187
v 0.054756 -0.047995 0.211437
v 0.149851 -0.041682 0.138905
v 0.147690 0.044689 0.014952
v 0.105024 0.041891 -0.076370
v 0.018847 0.036200 -0.119565
v -0.070519 0.030279 -0.094419
v -0.121258 0.026898 -0.012700
v -0.109628 0.027641 0.087354
v -0.041072 0.032157 0.158930
v 0.052333 0.038335 0.168533
v 0.126880 0.043285 0.111672
v 0.068597 0.077830 0.010837
v 0.049695 0.076590 -0.029619
v 0.011517 0.074069 -0.048755
v -0.028073 0.071447 -0.037615
v -0.050551 0.069949 -0.001413
v -0.045399 0.070277 0.042913
v -0.015028 0.072278 0.074622
v 0.026353 0.075015 0.078878
v 0.059379 0.077207 0.053686
v 0.827625 -0.088559 0.103351
v 0.743421 -0.109221 -0.294963
v 0.533111 -0.120786 -0.645184
v 0.105607 -0.105321 -0.924940
v -0.146054 -0.169990 -0.818547
v -0.475719 -0.073298 -0.846389
v -0.806194 -0.174678 -0.342604
v -0.836926 -0.172077 0.156310
v -0.671559 -0.131325 0.534393
v -0.496077 -0.153413 0.713668
v -0.139213 -0.209827 0.925258
v 0.419713 -0.113970 0.839154
v 0.704036 -0.104348 0.541733
v 0.841626 0.128414 0.076601
v 0.757422 0.107752 -0.321713
v 0.547111 0.096186 -0.671934
v 0.071375 0.091788 -0.872486
v -0.162700 0.051320 -0.799784
v -0.417933 0.054859 -0.773829
v -0.763479 0.084758 -0.372424
v -0.822925 0.044896 0.129559
v -0.620576 0.075043 0.447375
v -0.482076 0.063559 0.686917
v -0.125212 0.007145 0.898508
v 0.433714 0.103002 0.812404
v 0.718037 0.112624 0.514983
v 0.718509 0.123125 0.061536
v 0.635729 0.102895 -0.289079
v 0.471741 0.093877 -0.562161
v 0.070996 0.040274 -0.711887
v -0.098587 0.071381 -0.640450
v -0.360700 0.058287 -0.642469
v -0.614606 0.015271 -0.319348
v -0.686261 0.050296 0.086148
v -0.537365 0.027603 0.330911
v -0.397337 0.066396 0.594311
v -0.095339 0.007081 0.729452
v 0.343568 0.098028 0.660250
v 0.618993 0.107808 0.430957
v 0.710794 0.003572 0.076275
v 0.628014 -0.016659 -0.274338
v 0.014424 -0.040286 0.000416
v 0.464026 -0.025676 -0.547421
v 0.089858 -0.068334 -0.740789
v -0.106302 -0.048173 -0.625710
v -0.368415 -0.061266 -0.627729
v -0.632411 -0.069736 -0.292051
v -0.693976 -0.069256 0.100887
v -0.565457 -0.086107 0.378859
v -0.405051 -0.053157 0.609049
v -0.103055 -0.112472 0.744191
v 0.335853 -0.021525 0.674989
v 0.611277 -0.011745 0.445697
vt 0.488491 0.589530
vt 0.495655 0.585133
vt 0.492522 0.594158
vt 0.483671 0.591192
vt 0.483134 0.598298
vt 0.478481 0.590253
vt 0.473015 0.594730
vt 0.476164 0.585513
vt 0.469851 0.585723
vt 0.477526 0.580311
vt 0.472516 0.577148
vt 0.479280 0.572062
vt 0.487217 0.572106
vt 0.481529 0.577213
vt 0.493431 0.577075
vt 0.486123 0.577302
vt 0.489479 0.580183
vt 0.486353 0.584906
vt 0.490537 0.584894
vt 0.483464 0.587491
vt 0.485389 0.586723
vt 0.481508 0.586934
vt 0.480532 0.585153
vt 0.480974 0.583081
vt 0.482561 0.581726
vt 0.484524 0.581683
vt 0.485997 0.582929
vt 0.582757 0.508725
vt 0.575900 0.483281
vt 0.588463 0.481625
vt 0.566828 0.531619
vt 0.570695 0.504119
vt 0.535401 0.545241
vt 0.559197 0.522217
vt 0.518735 0.529141
vt 0.532256 0.534185
vt 0.516879 0.543223
vt 0.505757 0.527105
vt 0.499636 0.533916
vt 0.487052 0.504800
vt 0.473138 0.507868
vt 0.483049 0.478506
vt 0.470232 0.475558
vt 0.492030 0.458702
vt 0.481714 0.448980
vt 0.502472 0.446282
vt 0.495590 0.434529
vt 0.523453 0.435585
vt 0.558234 0.429430
vt 0.521148 0.422166
vt 0.580638 0.450139
vt 0.554978 0.441238
vt 0.570313 0.458553
vt 0.564173 0.482917
vt 0.559639 0.499821
vt 0.530028 0.485623
vt 0.551360 0.512882
vt 0.532862 0.521921
vt 0.523434 0.516052
vt 0.510684 0.515897
vt 0.498154 0.499334
vt 0.495473 0.480164
vt 0.501886 0.466671
vt 0.509988 0.455525
vt 0.525011 0.448945
vt 0.546770 0.453059
vt 0.559945 0.464625
vt 0.569874 0.483723
vt 0.555378 0.517006
vt 0.564829 0.502388
vt 0.532035 0.526013
vt 0.508946 0.520923
vt 0.522213 0.521483
vt 0.489829 0.480112
vt 0.495046 0.502248
vt 0.496198 0.464630
vt 0.506121 0.451171
vt 0.524733 0.443858
vt 0.550366 0.448543
vt 0.565224 0.462539
vn 0.8635 0.2903 -0.4123
vn 0.4062 0.3266 -0.8534
vn -0.2732 0.3906 -0.8791
vn -0.7749 0.4299 -0.4634
vn -0.8904 0.4441 0.1002
vn -0.6589 0.4502 0.6027
vn -0.1206 0.4391 0.8903
vn 0.5432 0.3859 0.7457
vn 0.9266 0.3159 0.2040
vn 0.3872 0.8981 -0.2084
vn 0.1683 0.8764 -0.4513
vn -0.1913 0.8571 -0.4782
vn -0.1913 0.8572 -0.4782
vn -0.4720 0.8429 -0.2582
vn -0.5256 0.8489 0.0548
vn -0.3732 0.8772 0.3021
vn -0.1015 0.9101 0.4018
vn 0.1865 0.9271 0.3252
vn 0.3805 0.9199 0.0952
vn -0.0660 0.9978 0.0003
vn 0.9289 -0.1038 -0.3554
vn 0.9977 -0.0608 0.0292
vn 0.9964 -0.0564 0.0641
vn 0.7023 -0.1221 -0.7013
vn 0.9249 -0.1047 -0.3654
vn 0.1774 0.1718 -0.9690
vn 0.6845 -0.0686 -0.7258
vn -0.2402 0.0904 -0.9665
vn 0.1565 0.2592 -0.9531
vn -0.2226 0.1208 -0.9674
vn -0.4302 0.5023 -0.7501
vn -0.4444 0.5175 -0.7312
vn -0.9210 0.1574 -0.3563
vn -0.9542 0.1059 -0.2798
vn -0.9797 0.0937 0.1772
vn -0.9759 0.1261 0.1781
vn -0.8459 0.3325 0.4170
vn -0.8272 0.3186 0.4627
vn -0.6122 0.1901 0.7675
vn -0.5566 0.1191 0.8222
vn -0.1292 0.1295 0.9831
vn 0.3645 0.0907 0.9268
vn -0.1528 0.1306 0.9796
vn 0.8616 0.0070 0.5076
vn 0.4450 0.0812 0.8918
vn 0.8867 -0.0002 0.4623
vn -0.0622 0.9980 -0.0059
vn -0.0503 0.9984 -0.0264
vn -0.0571 0.9983 0.0078
vn -0.0706 0.9970 -0.0313
vn -0.0425 0.9982 -0.0421
vn 0.0143 0.9998 -0.0154
vn -0.0445 0.9990 -0.0062
vn -0.0420 0.9991 -0.0078
vn -0.0369 0.9989 0.0282
vn -0.0742 0.9972 0.0071
vn 0.0348 0.9984 0.0451
vn -0.0472 0.9949 0.0891
vn -0.1251 0.9916 0.0320
vn -0.0533 0.9985 0.0075
vn -0.0490 0.9978 -0.0450
vn -0.0400 0.9982 -0.0441
vn -0.0375 0.9983 -0.0439
vn -0.1191 0.9924 0.0303
vn -0.1337 0.9583 0.2526
vn -0.1118 0.9922 -0.0559
vn 0.0296 0.9985 0.0467
vn -0.0007 0.9920 0.1265
vn -0.0696 0.9500 0.3045
vn -0.0305 0.9961 -0.0825
vn -0.0097 0.9984 -0.0564
vn -0.0488 0.9932 -0.1054
vn 0.2412 0.9326 0.2684
vn 0.0811 0.9964 0.0233
vn 0.0373 0.9984 -0.0423
vn 0.3382 0.9410 0.0138
vn 0.0652 0.9958 0.0639
vn 0.4239 0.9057 -0.0033
vn 0.0626 0.9980 -0.0031
vn 0.1740 0.9711 -0.1633
vn -0.0084 0.9952 0.0974
vn 0.1562 0.9712 -0.1802
vn 0.0628 0.9973 -0.0367
vn 0.1981 0.9491 -0.2451
vn 0.1319 0.9852 0.1092
vn 0.1395 0.9892 0.0455
vn 0.1272 0.9810 0.1464
vn -0.1963 0.9805 -0.0123
vn -0.1673 0.9848 0.0465
vn -0.2084 0.9773 -0.0372
vn -0.0499 0.9984 0.0267
vn -0.0612 0.9979 0.0196
vn -0.0638 0.9978 0.0180
vn -0.9704 0.0902 0.2239
vn -0.8531 0.1177 0.5084
vn -0.4082 -0.2292 0.8836
vn -0.3752 0.0692 0.9244
vn -0.3627 0.1370 0.9218
vn 0.4665 -0.0764 0.8812
vn 0.4330 0.0103 0.9014
vn 0.4897 -0.1438 0.8599
vn -0.0138 0.1232 0.9923
vn 0.7850 0.0329 0.6186
vn 0.7845 0.0268 0.6196
vn 0.7844 0.0258 0.6198
vn 0.9856 -0.0583 0.1589
vn 0.9753 -0.1286 0.1797
vn 0.9722 -0.1445 0.1843
vn 0.8390 -0.3452 -0.4205
vn 0.8468 -0.1836 -0.4992
vn 0.8433 -0.1190 -0.5241
vn 0.8349 -0.1910 -0.5163
vn 0.8409 -0.3421 -0.4194
vn 0.3820 -0.1373 -0.9139
vn -0.1319 -0.1129 -0.9848
vn -0.6378 -0.0536 -0.7684
vn -0.9654 0.0304 -0.2588
vn -0.2732 0.3905 -0.8791
vn -0.6589 0.4501 0.6027
vn -0.1914 0.8571 -0.4782
vn -0.0520 0.9976 -0.0453
vn -0.1362 0.9434 0.3023
vn 0.1092 0.9798 -0.1673
vn 0.0107 0.9995 -0.0308
vn 0.2918 0.8910 0.3479
vn -0.0148 0.9969 0.0774
vn 0.2193 0.9483 -0.2296
vn 0.0116 0.9991 0.0412
vn 0.1418 0.9896 0.0247
vn -0.1594 0.9853 0.0622
vn -0.0464 0.9985 0.0289
vn -0.4106 -0.3004 0.8609
vn 0.4002 0.0867 0.9123
vn 0.7852 0.0341 0.6184
vn 0.9870 -0.0446 0.1547
vn 0.8224 -0.1216 -0.5557
usemtl Texture1.001
s 1
f 11/1/1 1/2/1 2/3/1
f 12/4/2 2/3/2 3/5/2
f 13/6/3 3/5/3 4/7/3
f 14/8/4 4/7/4 5/9/4
f 15/10/5 5/9/5 6/11/5
f 7/12/6 15/10/6 6/11/6
f 8/13/7 16/14/7 7/12/7
f 9/15/8 17/16/8 8/13/8
f 1/2/9 18/17/9 9/15/9
f 11/1/10 19/18/10 10/19/10
f 11/1/11 21/20/11 20/21/11
f 12/4/12 22/22/12 21/20/13
f 13/6/14 23/23/14 22/22/14
f 14/8/15 24/24/15 23/23/15
f 15/10/16 25/25/16 24/24/16
f 16/14/17 26/26/17 25/25/17
f 18/17/18 26/26/18 17/16/18
f 10/19/19 27/27/19 18/17/19
f 25/25/20 20/21/20 21/20/20
f 26/26/20 19/18/20 20/21/20
f 21/20/20 24/24/20 25/25/20
f 22/22/20 23/23/20 24/24/20
f 29/28/21 41/29/22 28/30/23
f 30/31/24 42/32/25 29/28/21
f 31/33/26 43/34/27 30/31/24
f 31/33/26 45/35/28 44/36/29
f 32/37/30 46/38/31 45/35/28
f 33/39/32 47/40/33 46/38/31
f 34/41/34 48/42/35 47/40/33
f 35/43/36 49/44/37 48/42/35
f 36/45/38 50/46/39 49/44/37
f 37/47/40 51/48/41 50/46/39
f 39/49/42 51/48/41 38/50/43
f 40/51/44 52/52/45 39/49/42
f 28/30/23 53/53/46 40/51/44
f 67/54/47 68/55/48 69/56/49
f 68/55/48 70/57/50 69/56/49
f 70/57/50 71/58/51 69/56/49
f 71/58/51 72/59/52 69/56/49
f 72/59/52 73/60/53 69/56/49
f 73/60/53 74/61/54 69/56/49
f 74/61/54 75/62/55 69/56/49
f 75/62/55 76/63/56 69/56/49
f 76/63/56 77/64/57 69/56/49
f 77/64/57 78/65/58 69/56/49
f 78/65/58 79/66/59 69/56/49
f 79/66/59 80/67/60 69/56/49
f 80/67/60 67/54/47 69/56/49
f 42/32/61 54/68/62 41/29/63
f 42/32/54 56/69/54 55/70/54
f 43/34/64 57/71/65 56/69/66
f 45/35/67 57/71/68 44/36/69
f 45/35/70 59/72/71 58/73/72
f 47/40/73 59/72/74 46/38/75
f 47/40/76 61/74/77 60/75/78
f 48/42/79 62/76/80 61/74/81
f 49/44/82 63/77/83 62/76/84
f 50/46/85 64/78/86 63/77/87
f 51/48/88 65/79/89 64/78/90
f 53/53/54 65/79/54 52/52/54
f 41/29/91 66/80/92 53/53/93
f 54/68/94 68/55/94 67/54/94
f 55/70/95 70/57/95 68/55/95
f 57/71/96 70/57/97 56/69/98
f 57/71/99 72/59/100 71/58/101
f 59/72/102 72/59/102 58/73/102
f 60/75/103 73/60/104 59/72/105
f 61/74/106 74/61/107 60/75/108
f 62/76/109 75/62/110 61/74/111
f 63/77/112 76/63/113 62/76/109
f 64/78/114 77/64/114 63/77/114
f 64/78/115 79/66/115 78/65/115
f 65/79/116 80/67/116 79/66/116
f 66/80/117 67/54/117 80/67/117
f 11/1/1 10/19/1 1/2/1
f 12/4/2 11/1/2 2/3/2
f 13/6/3 12/4/118 3/5/3
f 14/8/4 13/6/4 4/7/4
f 15/10/5 14/8/5 5/9/5
f 7/12/6 16/14/119 15/10/6
f 8/13/7 17/16/7 16/14/7
f 9/15/8 18/17/8 17/16/8
f 1/2/9 10/19/9 18/17/9
f 11/1/10 20/21/10 19/18/10
f 11/1/11 12/4/11 21/20/11
f 12/4/12 13/6/120 22/22/12
f 13/6/14 14/8/14 23/23/14
f 14/8/15 15/10/15 24/24/15
f 15/10/16 16/14/16 25/25/16
f 16/14/17 17/16/17 26/26/17
f 18/17/18 27/27/18 26/26/18
f 10/19/19 19/18/19 27/27/19
f 25/25/20 26/26/20 20/21/20
f 26/26/20 27/27/20 19/18/20
f 21/20/20 22/22/20 24/24/20
f 29/28/21 42/32/25 41/29/22
f 30/31/24 43/34/27 42/32/25
f 31/33/26 44/36/29 43/34/27
f 31/33/26 32/37/30 45/35/28
f 32/37/30 33/39/32 46/38/31
f 33/39/32 34/41/34 47/40/33
f 34/41/34 35/43/36 48/42/35
f 35/43/36 36/45/38 49/44/37
f 36/45/38 37/47/40 50/46/39
f 37/47/40 38/50/43 51/48/41
f 39/49/42 52/52/45 51/48/41
f 40/51/44 53/53/46 52/52/45
f 28/30/23 41/29/22 53/53/46
f 42/32/61 55/70/121 54/68/62
f 42/32/54 43/34/54 56/69/54
f 43/34/64 44/36/122 57/71/65
f 45/35/67 58/73/123 57/71/68
f 45/35/70 46/38/124 59/72/71
f 47/40/73 60/75/125 59/72/74
f 47/40/76 48/42/126 61/74/77
f 48/42/79 49/44/127 62/76/80
f 49/44/82 50/46/128 63/77/83
f 50/46/85 51/48/129 64/78/86
f 51/48/88 52/52/130 65/79/89
f 53/53/54 66/80/54 65/79/54
f 41/29/91 54/68/131 66/80/92
f 54/68/94 55/70/94 68/55/94
f 55/70/95 56/69/95 70/57/95
f 57/71/96 71/58/132 70/57/97
f 57/71/99 58/73/133 72/59/100
f 59/72/102 73/60/102 72/59/102
f 60/75/103 74/61/134 73/60/104
f 61/74/106 75/62/135 74/61/107
f 62/76/109 76/63/113 75/62/110
f 63/77/112 77/64/136 76/63/113
f 64/78/114 78/65/114 77/64/114
f 64/78/115 65/79/115 79/66/115
f 65/79/116 66/80/116 80/67/116
f 66/80/117 54/68/117 67/54/117
